<?xml version="1.0" encoding="utf-8" standalone="no"?><!DOCTYPE svg PUBLIC "-//W3C//DTD SVG 20010904//EN" "http://www.w3.org/TR/2001/REC-SVG-20010904/DTD/svg10.dtd"><svg xmlns="http://www.w3.org/2000/svg" width="760" height="490" xmlns:xlink="http://www.w3.org/1999/xlink"><source><![CDATA[Title: POST /api/v1/verification/<id>
Note over Verification API: queries ORM for id
Verification API->lib.verify: verify query set
Note over lib.verify: get verification package
lib.verify->subprocess: popen
subprocess->subprocess: run verification
subprocess->lib.verify: 
lib.verify->Verification API: zipped results
Note over Verification API: persists results to ORM, s3]]></source><desc>Created with Raphaël 2.1.0</desc><defs><path id="raphael-marker-block" d="M5,0 0,2.5 5,5z" stroke-linecap="round"></path><marker refY="2.5" refX="2.5" orient="auto" markerWidth="5" markerHeight="5" id="raphael-marker-endblock55"><use stroke="none" fill="#000" stroke-width="1.0000" transform="rotate(180 2.5 2.5) scale(1,1)" xlink:href="#raphael-marker-block"></use></marker></defs><rect stroke-width="2" style="" stroke="#000000" fill="none" ry="0" rx="0" r="0" height="29" width="310" y="10" x="10"></rect><rect style="" stroke="none" fill="#ffffff" ry="0" rx="0" r="0" height="19" width="300" y="15" x="15"></rect><text font-family="Andale Mono, monospace" font-size="16px" fill="#000000" stroke="none" font="10px &quot;Arial&quot;" text-anchor="middle" y="24.5" x="165" style="text-anchor: middle; font: 16px Andale Mono,monospace;"><tspan dy="5.5">POST /api/v1/verification/&lt;id&gt;</tspan></text><rect stroke-width="2" style="" stroke="#000000" fill="none" ry="0" rx="0" r="0" height="39" width="180" y="49" x="60"></rect><rect style="" stroke="none" fill="#ffffff" ry="0" rx="0" r="0" height="19" width="160" y="59" x="70"></rect><text font-family="Andale Mono, monospace" font-size="16px" fill="#000000" stroke="none" font="10px &quot;Arial&quot;" text-anchor="middle" y="68.5" x="150" style="text-anchor: middle; font: 16px Andale Mono,monospace;"><tspan dy="5.5">Verification API</tspan></text><rect stroke-width="2" style="" stroke="#000000" fill="none" ry="0" rx="0" r="0" height="39" width="180" y="431" x="60"></rect><rect style="" stroke="none" fill="#ffffff" ry="0" rx="0" r="0" height="19" width="160" y="441" x="70"></rect><text font-family="Andale Mono, monospace" font-size="16px" fill="#000000" stroke="none" font="10px &quot;Arial&quot;" text-anchor="middle" y="450.5" x="150" style="text-anchor: middle; font: 16px Andale Mono,monospace;"><tspan dy="5.5">Verification API</tspan></text><path stroke-width="2" d="M150,88L150,431" stroke="#000000" fill="none" style=""></path><rect stroke-width="2" style="" stroke="#000000" fill="none" ry="0" rx="0" r="0" height="39" width="120" y="49" x="270"></rect><rect style="" stroke="none" fill="#ffffff" ry="0" rx="0" r="0" height="19" width="100" y="59" x="280"></rect><text font-family="Andale Mono, monospace" font-size="16px" fill="#000000" stroke="none" font="10px &quot;Arial&quot;" text-anchor="middle" y="68.5" x="330" style="text-anchor: middle; font: 16px Andale Mono,monospace;"><tspan dy="5.5">lib.verify</tspan></text><rect stroke-width="2" style="" stroke="#000000" fill="none" ry="0" rx="0" r="0" height="39" width="120" y="431" x="270"></rect><rect style="" stroke="none" fill="#ffffff" ry="0" rx="0" r="0" height="19" width="100" y="441" x="280"></rect><text font-family="Andale Mono, monospace" font-size="16px" fill="#000000" stroke="none" font="10px &quot;Arial&quot;" text-anchor="middle" y="450.5" x="330" style="text-anchor: middle; font: 16px Andale Mono,monospace;"><tspan dy="5.5">lib.verify</tspan></text><path stroke-width="2" d="M330,88L330,431" stroke="#000000" fill="none" style=""></path><rect stroke-width="2" style="" stroke="#000000" fill="none" ry="0" rx="0" r="0" height="39" width="120" y="49" x="410"></rect><rect style="" stroke="none" fill="#ffffff" ry="0" rx="0" r="0" height="19" width="100" y="59" x="420"></rect><text font-family="Andale Mono, monospace" font-size="16px" fill="#000000" stroke="none" font="10px &quot;Arial&quot;" text-anchor="middle" y="68.5" x="470" style="text-anchor: middle; font: 16px Andale Mono,monospace;"><tspan dy="5.5">subprocess</tspan></text><rect stroke-width="2" style="" stroke="#000000" fill="none" ry="0" rx="0" r="0" height="39" width="120" y="431" x="410"></rect><rect style="" stroke="none" fill="#ffffff" ry="0" rx="0" r="0" height="19" width="100" y="441" x="420"></rect><text font-family="Andale Mono, monospace" font-size="16px" fill="#000000" stroke="none" font="10px &quot;Arial&quot;" text-anchor="middle" y="450.5" x="470" style="text-anchor: middle; font: 16px Andale Mono,monospace;"><tspan dy="5.5">subprocess</tspan></text><path stroke-width="2" d="M470,88L470,431" stroke="#000000" fill="none" style=""></path><rect stroke-width="2" style="" stroke="#000000" fill="none" ry="0" rx="0" r="0" height="29" width="190" y="108" x="55"></rect><rect style="" stroke="none" fill="#ffffff" ry="0" rx="0" r="0" height="19" width="180" y="113" x="60"></rect><text font-family="Andale Mono, monospace" font-size="16px" fill="#000000" stroke="none" font="10px &quot;Arial&quot;" text-anchor="middle" y="122.5" x="150" style="text-anchor: middle; font: 16px Andale Mono,monospace;"><tspan dy="5.5">queries ORM for id</tspan></text><rect style="" stroke="none" fill="#ffffff" ry="0" rx="0" r="0" height="19" width="160" y="152.5" x="160"></rect><text font-family="Andale Mono, monospace" font-size="16px" fill="#000000" stroke="none" font="10px &quot;Arial&quot;" text-anchor="middle" y="162" x="240" style="text-anchor: middle; font: 16px Andale Mono,monospace;"><tspan dy="5.5">verify query set</tspan></text><path stroke-dasharray="0" marker-end="url(#raphael-marker-endblock55)" stroke-width="2" d="M150,176C150,176,295.9265899658203,176,324.9979028105736,176" stroke="#000000" fill="none" style=""></path><rect stroke-width="2" style="" stroke="#000000" fill="none" ry="0" rx="0" r="0" height="29" width="250" y="196" x="205"></rect><rect style="" stroke="none" fill="#ffffff" ry="0" rx="0" r="0" height="19" width="240" y="201" x="210"></rect><text font-family="Andale Mono, monospace" font-size="16px" fill="#000000" stroke="none" font="10px &quot;Arial&quot;" text-anchor="middle" y="210.5" x="330" style="text-anchor: middle; font: 16px Andale Mono,monospace;"><tspan dy="5.5">get verification package</tspan></text><rect style="" stroke="none" fill="#ffffff" ry="0" rx="0" r="0" height="19" width="50" y="240.5" x="375"></rect><text font-family="Andale Mono, monospace" font-size="16px" fill="#000000" stroke="none" font="10px &quot;Arial&quot;" text-anchor="middle" y="250" x="400" style="text-anchor: middle; font: 16px Andale Mono,monospace;"><tspan dy="5.5">popen</tspan></text><path stroke-dasharray="0" marker-end="url(#raphael-marker-endblock55)" stroke-width="2" d="M330,264C330,264,440.01721262931824,264,464.9967067077523,264" stroke="#000000" fill="none" style=""></path><rect style="" stroke="none" fill="#ffffff" ry="0" rx="0" r="0" height="19" width="160" y="284" x="495"></rect><text font-family="Andale Mono, monospace" font-size="16px" fill="#000000" stroke="none" font="10px &quot;Arial&quot;" text-anchor="middle" y="293.5" x="575" style="text-anchor: middle; font: 16px Andale Mono,monospace;"><tspan dy="5.5">run verification</tspan></text><path stroke-dasharray="0" stroke-width="2" d="M470,279L490,279" stroke="#000000" fill="none" style=""></path><path stroke-dasharray="0" stroke-width="2" d="M490,279L490,313" stroke="#000000" fill="none" style=""></path><path marker-end="url(#raphael-marker-endblock55)" stroke-dasharray="0" stroke-width="2" d="M490,313C490,313,480.9191131591797,313,474.9952533841133,313" stroke="#000000" fill="none" style=""></path><rect style="" stroke="none" fill="#ffffff" ry="0" rx="0" r="0" height="0" width="0" y="0" x="0"></rect><text font-family="Andale Mono, monospace" font-size="16px" fill="#000000" stroke="none" font="10px &quot;Arial&quot;" text-anchor="middle" y="328" x="400" style="text-anchor: middle; font: 16px Andale Mono,monospace;"><tspan dy="328"></tspan></text><path stroke-dasharray="0" marker-end="url(#raphael-marker-endblock55)" stroke-width="2" d="M470,323C470,323,359.98278737068176,323,335.0032932922477,323" stroke="#000000" fill="none" style=""></path><rect style="" stroke="none" fill="#ffffff" ry="0" rx="0" r="0" height="19" width="140" y="338.5" x="170"></rect><text font-family="Andale Mono, monospace" font-size="16px" fill="#000000" stroke="none" font="10px &quot;Arial&quot;" text-anchor="middle" y="348" x="240" style="text-anchor: middle; font: 16px Andale Mono,monospace;"><tspan dy="5.5">zipped results</tspan></text><path stroke-dasharray="0" marker-end="url(#raphael-marker-endblock55)" stroke-width="2" d="M330,362C330,362,184.0734100341797,362,155.00209718942642,362" stroke="#000000" fill="none" style=""></path><rect stroke-width="2" style="" stroke="#000000" fill="none" ry="0" rx="0" r="0" height="29" width="280" y="382" x="10"></rect><rect style="" stroke="none" fill="#ffffff" ry="0" rx="0" r="0" height="19" width="270" y="387" x="15"></rect><text font-family="Andale Mono, monospace" font-size="16px" fill="#000000" stroke="none" font="10px &quot;Arial&quot;" text-anchor="middle" y="396.5" x="150" style="text-anchor: middle; font: 16px Andale Mono,monospace;"><tspan dy="5.5">persists results to ORM, s3</tspan></text></svg>